<svg t="1693723230861" class="icon" viewBox="0 0 1024 1024" version="1.1" xmlns="http://www.w3.org/2000/svg" p-id="4424" width="128" height="128"><path d="M298.666667 142.498133m-73.900835 42.666667a85.333333 85.333333 0 1 0 147.801669-85.333333 85.333333 85.333333 0 1 0-147.801669 85.333333Z" p-id="4425" fill="#e6e6e6"></path><path d="M142.498133 298.666667m-42.666666 73.900834a85.333333 85.333333 0 1 0 85.333333-147.801669 85.333333 85.333333 0 1 0-85.333333 147.801669Z" p-id="4426" fill="#e6e6e6"></path><path d="M85.333333 512m0 85.333333a85.333333 85.333333 0 1 0 0-170.666666 85.333333 85.333333 0 1 0 0 170.666666Z" p-id="4427" fill="#e6e6e6"></path><path d="M142.498133 725.333333m42.666667 73.900835a85.333333 85.333333 0 1 0-85.333333-147.801669 85.333333 85.333333 0 1 0 85.333333 147.801669Z" p-id="4428" fill="#e6e6e6"></path><path d="M298.666667 881.501867m73.900834 42.666666a85.333333 85.333333 0 1 0-147.801669-85.333333 85.333333 85.333333 0 1 0 147.801669 85.333333Z" p-id="4429" fill="#e6e6e6"></path><path d="M512 938.666667m-85.333333 0a85.333333 85.333333 0 1 0 170.666666 0 85.333333 85.333333 0 1 0-170.666666 0Z" p-id="4430" fill="#e6e6e6"></path><path d="M725.333333 881.501867m-73.900834 42.666666a85.333333 85.333333 0 1 0 147.801669-85.333333 85.333333 85.333333 0 1 0-147.801669 85.333333Z" p-id="4431" fill="#e6e6e6"></path><path d="M881.501867 725.333333m-42.666667 73.900835a85.333333 85.333333 0 1 0 85.333333-147.801669 85.333333 85.333333 0 1 0-85.333333 147.801669Z" p-id="4432" fill="#e6e6e6"></path><path d="M938.666667 512m0 85.333333a85.333333 85.333333 0 1 0 0-170.666666 85.333333 85.333333 0 1 0 0 170.666666Z" p-id="4433" fill="#e6e6e6"></path><path d="M881.501867 298.666667m42.666666 73.900834a85.333333 85.333333 0 1 0-85.333333-147.801669 85.333333 85.333333 0 1 0 85.333333 147.801669Z" p-id="4434" fill="#e6e6e6"></path><path d="M725.333333 142.498133m73.900835 42.666667a85.333333 85.333333 0 1 0-147.801669-85.333333 85.333333 85.333333 0 1 0 147.801669 85.333333Z" p-id="4435" fill="#e6e6e6"></path><path d="M512 85.333333m-85.333333 0a85.333333 85.333333 0 1 0 170.666666 0 85.333333 85.333333 0 1 0-170.666666 0Z" p-id="4436" fill="#e6e6e6"></path></svg>