<svg t="1694335820972" class="icon" viewBox="0 0 1024 1024" version="1.1" xmlns="http://www.w3.org/2000/svg" p-id="11092" width="128" height="128"><path d="M512 46.549333c34.517333 0 68.565333 3.797333 101.696 11.264l19.136 4.288 59.648 135.978667 146.837333-16.042667 13.269334 14.442667a465.493333 465.493333 0 0 1 101.802666 176.938667l5.76 18.602666-11.456 15.722667L872.746667 512l87.402666 119.978667-5.76 18.602666a465.493333 465.493333 0 0 1-101.802666 176.938667l-13.269334 14.442667-146.837333-16.042667-59.648 135.978667-19.136 4.288c-33.130667 7.466667-67.2 11.264-101.696 11.264-34.517333 0-68.586667-3.797333-101.717333-11.264l-19.136-4.309334-7.893334-17.941333-51.733333-118.016-146.837333 16.042667-13.269334-14.442667a465.493333 465.493333 0 0 1-101.802666-176.96l-5.76-18.602667 11.456-15.722666L151.253333 512l-87.402666-119.957333 5.76-18.602667A465.493333 465.493333 0 0 1 171.413333 196.48l13.269334-14.442667 146.837333 16.042667 59.626667-135.957333 19.136-4.309334c33.130667-7.466667 67.2-11.264 101.717333-11.264z m0 77.568c-22.250667 0-44.224 1.898667-65.792 5.610667l-47.786667 108.992a63.488 63.488 0 0 1-65.066666 37.610667l-117.482667-12.864a387.946667 387.946667 0 0 0-66.048 114.837333l70.165333 96.32c16.213333 22.272 16.213333 52.48 0 74.752l-70.186666 96.32a387.946667 387.946667 0 0 0 66.069333 114.837333l117.504-12.864a63.488 63.488 0 0 1 65.045333 37.632l47.786667 108.970667c21.546667 3.712 43.541333 5.610667 65.792 5.610667 22.229333 0 44.224-1.898667 65.770667-5.610667l47.808-108.992a63.488 63.488 0 0 1 65.066666-37.610667l117.482667 12.864a387.946667 387.946667 0 0 0 66.048-114.816l-70.165333-96.341333a63.488 63.488 0 0 1 0-74.752l70.165333-96.341333a387.946667 387.946667 0 0 0-66.048-114.816l-117.504 12.864a63.488 63.488 0 0 1-65.045333-37.610667l-47.786667-108.992A386.325333 386.325333 0 0 0 512 124.117333z m0 193.941334c106.752 0 193.194667 86.869333 193.194667 193.941333 0 107.072-86.442667 193.92-193.194667 193.92S318.805333 619.093333 318.805333 512s86.442667-193.92 193.194667-193.92z m0 77.568c-63.808 0-115.626667 52.053333-115.626667 116.373333 0 64.298667 51.818667 116.373333 115.626667 116.373333s115.626667-52.053333 115.626667-116.373333c0-64.298667-51.818667-116.373333-115.626667-116.373333z" fill="#ffffff" p-id="11093"></path></svg>